<svg id="Layer_1" data-name="Layer 1" xmlns="http://www.w3.org/2000/svg" viewBox="0 0 32 32"><path d="M874.73,438a10.83,10.83,0,0,1,1.61-.11,3,3,0,0,1,1.82.45,1.35,1.35,0,0,1,.57,1.13,1.44,1.44,0,0,1-.5,1.15,3.07,3.07,0,0,1-2,.59,3.39,3.39,0,0,1-.67-.05v2.16h-.84Zm.84,2.59a3.27,3.27,0,0,0,.69.06c1,0,1.63-.41,1.63-1.15s-.61-1.06-1.53-1.06a4.23,4.23,0,0,0-.79.06Z" transform="translate(-874.73 -427.25)"/><path d="M886.07,429h-5.73v-1.72h13.95V429h-5.76v13.9h-2.46Z" transform="translate(-874.73 -427.25)"/><path d="M883.8,443.1l2.82,6.55c.29.73.61,1.6.82,2.27h.06c.23-.67.5-1.51.82-2.32l2.55-6.5h2.47l-3.51,7.9c-1.67,3.81-2.81,5.75-4.41,6.94a6.63,6.63,0,0,1-2.86,1.31l-.59-1.69a6.82,6.82,0,0,0,2-1,6.35,6.35,0,0,0,2-2.25,1.2,1.2,0,0,0,.19-.48,1.73,1.73,0,0,0-.16-.52l-4.76-10.22Z" transform="translate(-874.73 -427.25)"/><path d="M894,440.58c0,4.15-3.47,6-6.74,6-3.66,0-6.49-2.23-6.49-5.78,0-3.75,3-5.95,6.72-5.95S894,437.15,894,440.58Zm-10.74.11a4.12,4.12,0,1,0,8.22,0,4.12,4.12,0,1,0-8.22,0Z" transform="translate(-874.73 -427.25)"/><path d="M897.87,437.87c0,.24-.21.43-.54.43a.46.46,0,0,1-.51-.43.48.48,0,0,1,.53-.44A.47.47,0,0,1,897.87,437.87Zm-1,4.95V439h.85v3.86Z" transform="translate(-874.73 -427.25)"/><path d="M899.18,439.89c0-.4,0-.72,0-1h.75l.05.63h0a1.81,1.81,0,0,1,1.54-.72,1.54,1.54,0,0,1,1.65,1.64v2.31h-.85v-2.23a1,1,0,0,0-1.08-1.14,1.2,1.2,0,0,0-1.14.72,1.09,1.09,0,0,0-.05.33v2.32h-.85Z" transform="translate(-874.73 -427.25)"/><path d="M905.51,437.62v1.11h1.22v.54h-1.22v2.09c0,.48.17.75.64.75a2.54,2.54,0,0,0,.49-.05l0,.53a2.66,2.66,0,0,1-.75.09,1.32,1.32,0,0,1-.92-.29,1.27,1.27,0,0,1-.33-1v-2.11H904v-.54h.72v-.92Z" transform="translate(-874.73 -427.25)"/></svg>