<svg id="Layer_1" data-name="Layer 1" xmlns="http://www.w3.org/2000/svg" viewBox="0 0 82.4 99.4"><path d="M874.7,460.5a23.4,23.4,0,0,1,4.2-.3c2.1,0,3.7.4,4.7,1.3A4.7,4.7,0,0,1,885,465a4.5,4.5,0,0,1-1.3,3.6,6.9,6.9,0,0,1-5.1,1.9l-1.7-.2V477h-2.2Zm2.2,8a5,5,0,0,0,1.8.2c2.6,0,4.2-1.2,4.2-3.6s-1.6-3.2-4-3.2h-2Z" transform="translate(-874.7 -427.3)"/><path d="M903.9,432.6H889.2v-5.3h35.9v5.3H910.3v43.2h-6.4Z" transform="translate(-874.7 -427.3)"/><path d="M898.1,476.5l7.2,20.3c.8,2.3,1.6,5,2.2,7.1h.1c.6-2.1,1.3-4.7,2.1-7.2l6.6-20.2h6.3l-9,24.5c-4.3,11.9-7.2,17.9-11.3,21.6a16.8,16.8,0,0,1-7.4,4.1l-1.5-5.3a14.5,14.5,0,0,0,5.2-3.1,17.9,17.9,0,0,0,5.1-6.9,5,5,0,0,0,.5-1.5,9.5,9.5,0,0,0-.4-1.7l-12.3-31.7Z" transform="translate(-874.7 -427.3)"/><path d="M924.4,468.7c0,12.8-8.9,18.5-17.3,18.5s-16.8-7-16.8-18,7.7-18.5,17.3-18.5S924.4,458,924.4,468.7Zm-27.6.3c0,7.6,4.3,13.4,10.5,13.4s10.6-5.7,10.6-13.5c0-5.9-2.9-13.4-10.4-13.4S896.8,462.4,896.8,469Z" transform="translate(-874.7 -427.3)"/><path d="M934.3,460.2a1.3,1.3,0,0,1-1.4,1.4,1.3,1.3,0,0,1-1.3-1.4,1.3,1.3,0,0,1,1.4-1.3A1.3,1.3,0,0,1,934.3,460.2Zm-2.4,15.4v-12h2.2v12Z" transform="translate(-874.7 -427.3)"/><path d="M937.7,466.5c0-1.2,0-2.2-.1-3.2h1.9v2h.1a4.4,4.4,0,0,1,4-2.3c1.6,0,4.2,1,4.2,5.1v7.2h-2.2v-6.9c0-2-.7-3.6-2.8-3.6A3.1,3.1,0,0,0,940,467a3.7,3.7,0,0,0-.1,1.1v7.2h-2.2Z" transform="translate(-874.7 -427.3)"/><path d="M954,459.5v3.4h3.1v1.7H954v6.5c0,1.5.4,2.3,1.6,2.3h1.3v1.6a4.7,4.7,0,0,1-1.9.3,3,3,0,0,1-2.4-.9,4.7,4.7,0,0,1-.8-3.2v-6.5H950v-1.7h1.9V460Z" transform="translate(-874.7 -427.3)"/></svg>